<svg width="460" height="170" viewBox="0 0 460 170" xmlns="http://www.w3.org/2000/svg" xmlns:xlink="http://www.w3.org/1999/xlink" role="img" aria-label="Hack The Box profile badge for fer">
  <title>Hack The Box profile badge for fer</title>
  <defs>
    <linearGradient id="bg" x1="0" y1="0" x2="1" y2="1">
      <stop offset="0%" stop-color="#0d1117"/>
      <stop offset="100%" stop-color="#141d2b"/>
    </linearGradient>
    <pattern id="hex" width="22" height="19" patternUnits="userSpaceOnUse" patternTransform="translate(0,0)">
      <path d="M11 0 L22 6.3 L22 12.7 L11 19 L0 12.7 L0 6.3 Z" fill="none" stroke="#9FEF00" stroke-opacity="0.06" stroke-width="1"/>
    </pattern>
    <clipPath id="avatarClip">
      <circle cx="55" cy="75" r="35"/>
    </clipPath>
  </defs>

  <rect x="0.75" y="0.75" width="458.5" height="168.5" rx="14" fill="url(#bg)" stroke="#9FEF00" stroke-opacity="0.55" stroke-width="1.5"/>
  <rect x="0.75" y="0.75" width="458.5" height="168.5" rx="14" fill="url(#hex)"/>

  <circle cx="55" cy="75" r="37" fill="none" stroke="#9FEF00" stroke-width="2"/>
  <rect x="20" y="40" width="70" height="70" fill="#2d3746" clip-path="url(#avatarClip)"/><circle cx="55" cy="67" r="14" fill="#6e7f96" clip-path="url(#avatarClip)"/><circle cx="55" cy="115" r="26" fill="#6e7f96" clip-path="url(#avatarClip)"/>

  <text x="130" y="50" font-family="Verdana, sans-serif" font-size="20" font-weight="bold" fill="#e6edf3">fer</text>
  <g transform="translate(176.5,36)">
    <rect width="91.0" height="20" rx="10" fill="#9FEF00" fill-opacity="0.12" stroke="#9FEF00" stroke-opacity="0.5"/>
    <text x="8" y="14" font-family="Verdana, sans-serif" font-size="11" fill="#9FEF00">Skilled II</text>
  </g>

  <line x1="130" y1="68" x2="436" y2="68" stroke="#9FEF00" stroke-opacity="0.2" stroke-width="1"/>

  
    <g>
      <g transform="translate(130,96) scale(0.6666666666666666)"><g fill="none" stroke="#9FEF00" stroke-width="2" stroke-linecap="round" stroke-linejoin="round"><circle cx="12" cy="8" r="7"/><polyline points="8.21 13.89 7 23 12 20 17 23 15.79 13.88"/></g></g>
      <text x="152" y="111" font-family="Verdana, sans-serif" font-size="15" font-weight="bold" fill="#e6edf3">42</text>
      <text x="130" y="128" font-family="Verdana, sans-serif" font-size="8" letter-spacing="1" fill="#7d8590">LEVEL</text>
    </g>
    <g>
      <g transform="translate(197.5,96) scale(0.6666666666666666)"><g fill="none" stroke="#9FEF00" stroke-width="2" stroke-linecap="round" stroke-linejoin="round"><path d="M4 15s1-1 4-1 5 2 8 2 4-1 4-1V3s-1 1-4 1-5-2-8-2-4 1-4 1z"/><line x1="4" y1="22" x2="4" y2="15"/></g></g>
      <text x="219.5" y="111" font-family="Verdana, sans-serif" font-size="15" font-weight="bold" fill="#e6edf3">198</text>
      <text x="197.5" y="128" font-family="Verdana, sans-serif" font-size="8" letter-spacing="1" fill="#7d8590">PWNED</text>
    </g>
    <g>
      <g transform="translate(266.0,96) scale(0.6666666666666666)"><g fill="none" stroke="#9FEF00" stroke-width="2" stroke-linecap="round" stroke-linejoin="round"><polyline points="23 6 13.5 15.5 8.5 10.5 1 18"/><polyline points="17 6 23 6 23 12"/></g></g>
      <text x="288.0" y="111" font-family="Verdana, sans-serif" font-size="15" font-weight="bold" fill="#e6edf3">#4,213</text>
      <text x="266.0" y="128" font-family="Verdana, sans-serif" font-size="8" letter-spacing="1" fill="#7d8590">RANK</text>
    </g>
    <g>
      <g transform="translate(363.0,96) scale(0.6666666666666666)"><g fill="#9FEF00" stroke="none"><path d="M8.5 14.5A2.5 2.5 0 0 0 11 12c0-1.38-.5-2-1-3-1.072-2.143-.224-4.054 2-6 .5 2.5 2 4.9 4 6.5 2 1.6 3 3.5 3 5.5a7 7 0 1 1-14 0c0-1.153.433-2.294 1-3a2.5 2.5 0 0 0 2.5 2.5z"/></g></g>
      <text x="385.0" y="111" font-family="Verdana, sans-serif" font-size="15" font-weight="bold" fill="#e6edf3">6</text>
      <text x="363.0" y="128" font-family="Verdana, sans-serif" font-size="8" letter-spacing="1" fill="#7d8590">STREAK</text>
    </g>

  <text x="24" y="154" font-family="Verdana, sans-serif" font-size="10" fill="#7d8590">hackthebox.com</text>
  <text x="436" y="154" text-anchor="end" font-family="Verdana, sans-serif" font-size="10" font-style="italic" fill="#7d8590">Made by fer</text>
</svg>
